<svg xmlns="http://www.w3.org/2000/svg" width="24" height="24" viewBox="0 0 24 24" fill="none" stroke="currentColor" stroke-width="2" stroke-linecap="round" stroke-linejoin="round">
  <path d="M2 12h2a2 2 0 0 1 2 2v6a2 2 0 0 1-2 2H2v-6h2"></path>
  <path d="M6 8h2a2 2 0 0 1 2 2v10a2 2 0 0 1-2 2H6V8h2"></path>
  <path d="M10 4h2a2 2 0 0 1 2 2v14a2 2 0 0 1-2 2h-2V4h2"></path>
  <path d="M14 2h2a2 2 0 0 1 2 2v16a2 2 0 0 1-2 2h-2V2h2"></path>
  <path d="M18 6h2a2 2 0 0 1 2 2v10a2 2 0 0 1-2 2h-2V6h2"></path>
</svg>
